<svg width="341" height="183" viewBox="0 0 341 183" fill="none" xmlns="http://www.w3.org/2000/svg">
<path fill-rule="evenodd" clip-rule="evenodd" d="M221.243 24.3028L326.364 24.1036L326.33 6.10303L194.979 6.35199V27.3013L226.001 50.2703V176.209H244.107V41.2322L221.243 24.3028ZM72.2942 7.0757H164.384V77.3614L185.632 94.0538V178.028H14.6532V160.027H167.525V102.772L146.278 86.0792V25.0763H90.4007V129.049H72.2942V7.0757ZM189.162 48.8637L215.365 70.753V176.774H197.259V79.1392L177.514 62.645L189.162 48.8637Z" fill="#5C5CFF"/>
<path d="M14.6531 183C22.7458 183 29.3063 176.491 29.3063 168.462C29.3063 160.433 22.7458 153.924 14.6531 153.924C6.56043 153.924 0 160.433 0 168.462C0 176.491 6.56043 183 14.6531 183Z" fill="#5C5CFF"/>
<path d="M326.347 29.076C334.44 29.076 341 22.5671 341 14.538C341 6.50888 334.44 0 326.347 0C318.254 0 311.694 6.50888 311.694 14.538C311.694 22.5671 318.254 29.076 326.347 29.076Z" fill="#5C5CFF"/>
<path d="M183.338 69.7271C191.431 69.7271 197.991 63.2182 197.991 55.1891C197.991 47.16 191.431 40.6511 183.338 40.6511C175.245 40.6511 168.685 47.16 168.685 55.1891C168.685 63.2182 175.245 69.7271 183.338 69.7271Z" fill="#5C5CFF"/>
</svg>
